<?xml version="1.0" encoding="utf-8"?>
<!-- Generator: Adobe Illustrator 19.0.0, SVG Export Plug-In . SVG Version: 6.00 Build 0)  -->
<svg version="1.1" baseProfile="basic" id="Layer_1"
	 xmlns="http://www.w3.org/2000/svg" xmlns:xlink="http://www.w3.org/1999/xlink" x="0px" y="0px" width="310px" height="380px"
	 viewBox="0 0 310 380" xml:space="preserve">
<g id="XMLID_1_">
	<path id="XMLID_3_" fill="#231F20" d="M80.18,190v-20.583h2.527v7.385c1.179-1.366,2.667-2.05,4.464-2.05
		c1.104,0,2.064,0.218,2.878,0.653s1.397,1.037,1.748,1.804s0.526,1.881,0.526,3.341V190h-2.527v-9.449
		c0-1.263-0.273-2.183-0.821-2.759c-0.547-0.576-1.322-0.863-2.324-0.863c-0.749,0-1.453,0.194-2.113,0.583
		c-0.66,0.389-1.13,0.915-1.411,1.58s-0.421,1.582-0.421,2.752V190H80.18z"/>
	<path id="XMLID_5_" fill="#231F20" d="M106.379,185.198l2.611,0.323c-0.412,1.525-1.175,2.709-2.289,3.552
		s-2.537,1.264-4.268,1.264c-2.181,0-3.91-0.672-5.188-2.015c-1.278-1.343-1.917-3.227-1.917-5.651c0-2.508,0.646-4.455,1.938-5.84
		c1.292-1.385,2.967-2.078,5.026-2.078c1.994,0,3.622,0.679,4.886,2.036c1.264,1.357,1.896,3.267,1.896,5.729
		c0,0.15-0.005,0.375-0.014,0.674h-11.12c0.093,1.639,0.557,2.893,1.39,3.763c0.833,0.871,1.872,1.306,3.117,1.306
		c0.927,0,1.717-0.243,2.373-0.729C105.476,187.042,105.995,186.266,106.379,185.198z M98.081,181.113h8.326
		c-0.112-1.254-0.431-2.195-0.955-2.822c-0.805-0.973-1.849-1.46-3.131-1.46c-1.161,0-2.136,0.388-2.927,1.165
		C98.603,178.773,98.166,179.812,98.081,181.113z"/>
	<path id="XMLID_8_" fill="#231F20" d="M112.107,190v-20.583h2.527V190H112.107z"/>
	<path id="XMLID_10_" fill="#231F20" d="M118.496,190v-20.583h2.527V190H118.496z"/>
	<path id="XMLID_12_" fill="#231F20" d="M123.999,182.545c0-2.761,0.768-4.807,2.303-6.136c1.282-1.104,2.845-1.657,4.689-1.657
		c2.05,0,3.725,0.672,5.026,2.015c1.301,1.343,1.952,3.199,1.952,5.567c0,1.919-0.288,3.429-0.864,4.528s-1.413,1.954-2.513,2.562
		c-1.1,0.607-2.3,0.912-3.601,0.912c-2.087,0-3.775-0.669-5.062-2.008C124.643,186.991,123.999,185.062,123.999,182.545z
		 M126.597,182.545c0,1.909,0.417,3.339,1.25,4.289s1.881,1.425,3.145,1.425c1.254,0,2.298-0.478,3.131-1.432
		c0.833-0.955,1.25-2.41,1.25-4.367c0-1.844-0.419-3.241-1.256-4.191c-0.838-0.95-1.879-1.425-3.124-1.425
		c-1.264,0-2.312,0.473-3.145,1.418S126.597,180.635,126.597,182.545z"/>
	<path id="XMLID_15_" fill="#231F20" d="M151.672,190l-4.562-14.911h2.611l2.373,8.606l0.885,3.202
		c0.037-0.159,0.295-1.185,0.771-3.075l2.373-8.733h2.598l2.232,8.649l0.744,2.85l0.855-2.878l2.557-8.621h2.457L162.904,190h-2.625
		l-2.373-8.93l-0.576-2.541L154.312,190H151.672z"/>
	<path id="XMLID_17_" fill="#231F20" d="M168.745,182.545c0-2.761,0.767-4.807,2.302-6.136c1.283-1.104,2.846-1.657,4.689-1.657
		c2.05,0,3.726,0.672,5.026,2.015c1.302,1.343,1.952,3.199,1.952,5.567c0,1.919-0.288,3.429-0.863,4.528
		c-0.576,1.1-1.414,1.954-2.514,2.562c-1.1,0.607-2.3,0.912-3.602,0.912c-2.087,0-3.774-0.669-5.062-2.008
		C169.389,186.991,168.745,185.062,168.745,182.545z M171.342,182.545c0,1.909,0.417,3.339,1.25,4.289s1.881,1.425,3.145,1.425
		c1.255,0,2.298-0.478,3.132-1.432c0.832-0.955,1.249-2.41,1.249-4.367c0-1.844-0.419-3.241-1.257-4.191
		c-0.838-0.95-1.879-1.425-3.124-1.425c-1.264,0-2.312,0.473-3.145,1.418S171.342,180.635,171.342,182.545z"/>
	<path id="XMLID_20_" fill="#231F20" d="M185.649,190v-14.911h2.274v2.261c0.58-1.058,1.116-1.755,1.607-2.092
		c0.492-0.337,1.032-0.505,1.622-0.505c0.852,0,1.718,0.271,2.598,0.814l-0.871,2.345c-0.617-0.365-1.235-0.548-1.853-0.548
		c-0.553,0-1.049,0.167-1.488,0.499c-0.44,0.333-0.754,0.793-0.941,1.383c-0.28,0.899-0.421,1.881-0.421,2.949V190H185.649z"/>
	<path id="XMLID_22_" fill="#231F20" d="M195.196,190v-20.583h2.527V190H195.196z"/>
	<path id="XMLID_24_" fill="#231F20" d="M211.315,190v-1.882c-0.945,1.479-2.336,2.219-4.17,2.219c-1.189,0-2.282-0.328-3.278-0.982
		c-0.997-0.655-1.77-1.57-2.317-2.745c-0.547-1.175-0.821-2.524-0.821-4.051c0-1.488,0.248-2.838,0.744-4.05
		c0.496-1.212,1.24-2.141,2.232-2.787s2.102-0.969,3.328-0.969c0.898,0,1.698,0.189,2.4,0.569c0.702,0.379,1.273,0.873,1.713,1.481
		v-7.385h2.514V190H211.315z M203.326,182.559c0,1.909,0.402,3.337,1.208,4.282c0.805,0.945,1.755,1.418,2.85,1.418
		c1.104,0,2.043-0.451,2.815-1.354c0.771-0.903,1.158-2.281,1.158-4.135c0-2.041-0.394-3.538-1.18-4.493
		c-0.786-0.955-1.755-1.432-2.906-1.432c-1.123,0-2.062,0.459-2.814,1.376C203.703,179.138,203.326,180.584,203.326,182.559z"/>
	<path id="XMLID_27_" fill="#231F20" d="M226.97,184.89l-0.772-10.909v-4.563h3.131v4.563l-0.729,10.909H226.97z M226.31,190v-2.878
		h2.906V190H226.31z"/>
</g>
<g id="XMLID_2_">
</g>
<g id="XMLID_30_">
</g>
<g id="XMLID_31_">
</g>
<g id="XMLID_32_">
</g>
<g id="XMLID_33_">
</g>
<g id="XMLID_34_">
</g>
</svg>
