<?xml version="1.0" encoding="utf-8"?>
<!-- Generator: Adobe Illustrator 19.0.0, SVG Export Plug-In . SVG Version: 6.00 Build 0)  -->
<svg version="1.1" baseProfile="basic" id="Layer_1"
	 xmlns="http://www.w3.org/2000/svg" xmlns:xlink="http://www.w3.org/1999/xlink" x="0px" y="0px" width="150px" height="22px"
	 viewBox="0 0 150 22" xml:space="preserve">
<g id="XMLID_1_">
	<path id="XMLID_3_" fill="#231F20" d="M0,21.301V0.6h2.541v7.427c1.186-1.374,2.682-2.062,4.489-2.062
		c1.11,0,2.076,0.219,2.894,0.657c0.819,0.437,1.405,1.043,1.758,1.814s0.529,1.892,0.529,3.36v9.504H9.671v-9.503
		c0-1.27-0.275-2.195-0.826-2.775c-0.55-0.579-1.33-0.868-2.337-0.868c-0.753,0-1.461,0.195-2.125,0.586
		c-0.664,0.391-1.136,0.92-1.419,1.589c-0.283,0.669-0.423,1.591-0.423,2.768v8.203H0z"/>
	<path id="XMLID_5_" fill="#231F20" d="M26.348,16.471l2.626,0.325c-0.414,1.534-1.182,2.724-2.302,3.572
		c-1.12,0.848-2.551,1.271-4.292,1.271c-2.193,0-3.932-0.676-5.218-2.026c-1.285-1.351-1.928-3.245-1.928-5.683
		c0-2.522,0.65-4.48,1.949-5.873s2.984-2.09,5.055-2.09c2.005,0,3.643,0.683,4.914,2.048s1.907,3.286,1.907,5.762
		c0,0.151-0.005,0.377-0.014,0.678H17.861c0.094,1.648,0.56,2.91,1.398,3.784c0.838,0.876,1.883,1.313,3.135,1.313
		c0.932,0,1.727-0.244,2.387-0.733C25.44,18.326,25.962,17.546,26.348,16.471z M18.003,12.363h8.374
		c-0.113-1.261-0.433-2.208-0.96-2.838c-0.81-0.979-1.86-1.468-3.149-1.468c-1.168,0-2.148,0.39-2.944,1.172
		C18.528,10.01,18.089,11.055,18.003,12.363z"/>
	<path id="XMLID_8_" fill="#231F20" d="M32.109,21.301V0.6h2.541v20.7H32.109z"/>
	<path id="XMLID_10_" fill="#231F20" d="M38.535,21.301V0.6h2.541v20.7H38.535z"/>
	<path id="XMLID_12_" fill="#231F20" d="M44.069,13.803c0-2.777,0.772-4.834,2.316-6.171c1.289-1.11,2.861-1.666,4.716-1.666
		c2.062,0,3.746,0.676,5.055,2.026s1.963,3.217,1.963,5.599c0,1.93-0.29,3.449-0.869,4.554c-0.579,1.105-1.421,1.965-2.527,2.577
		c-1.106,0.61-2.313,0.917-3.622,0.917c-2.099,0-3.797-0.673-5.091-2.019C44.717,18.275,44.069,16.335,44.069,13.803z
		 M46.682,13.803c0,1.92,0.419,3.358,1.257,4.313c0.838,0.955,1.892,1.433,3.163,1.433c1.261,0,2.311-0.481,3.149-1.44
		c0.838-0.96,1.257-2.424,1.257-4.392c0-1.855-0.421-3.259-1.263-4.215c-0.843-0.955-1.89-1.433-3.142-1.433
		c-1.271,0-2.325,0.476-3.163,1.426C47.102,10.446,46.682,11.882,46.682,13.803z"/>
	<path id="XMLID_15_" fill="#231F20" d="M71.9,21.301L67.312,6.305h2.626l2.387,8.655l0.89,3.22c0.037-0.16,0.297-1.192,0.775-3.093
		l2.387-8.783h2.613l2.245,8.698l0.748,2.866l0.86-2.894l2.572-8.67h2.471l-4.689,14.996h-2.64l-2.387-8.981L77.59,9.764
		l-3.035,11.536H71.9z"/>
	<path id="XMLID_17_" fill="#231F20" d="M89.07,13.803c0-2.777,0.771-4.834,2.315-6.171c1.29-1.11,2.862-1.666,4.716-1.666
		c2.062,0,3.747,0.676,5.055,2.026c1.309,1.351,1.963,3.217,1.963,5.599c0,1.93-0.29,3.449-0.868,4.554
		c-0.579,1.106-1.422,1.965-2.528,2.577c-1.106,0.61-2.313,0.917-3.623,0.917c-2.099,0-3.796-0.673-5.091-2.019
		C89.718,18.275,89.07,16.335,89.07,13.803z M91.682,13.803c0,1.92,0.419,3.358,1.257,4.313c0.838,0.955,1.892,1.433,3.163,1.433
		c1.262,0,2.311-0.481,3.15-1.44c0.837-0.96,1.256-2.424,1.256-4.392c0-1.855-0.421-3.259-1.264-4.215s-1.89-1.433-3.142-1.433
		c-1.271,0-2.325,0.476-3.163,1.426C92.102,10.446,91.682,11.882,91.682,13.803z"/>
	<path id="XMLID_20_" fill="#231F20" d="M106.071,21.301V6.305h2.287v2.274c0.583-1.064,1.122-1.765,1.616-2.104
		c0.495-0.339,1.038-0.508,1.631-0.508c0.857,0,1.728,0.273,2.613,0.819l-0.876,2.358c-0.621-0.367-1.242-0.551-1.864-0.551
		c-0.556,0-1.055,0.168-1.496,0.502c-0.443,0.335-0.758,0.798-0.946,1.391c-0.282,0.904-0.423,1.892-0.423,2.966v7.85H106.071z"/>
	<path id="XMLID_22_" fill="#231F20" d="M115.672,21.301V0.6h2.541v20.7H115.672z"/>
	<path id="XMLID_24_" fill="#231F20" d="M131.883,21.301v-1.893c-0.95,1.487-2.349,2.232-4.194,2.232
		c-1.196,0-2.295-0.33-3.297-0.988c-1.003-0.659-1.78-1.579-2.33-2.761c-0.55-1.182-0.826-2.538-0.826-4.074
		c0-1.496,0.249-2.854,0.748-4.073c0.499-1.219,1.247-2.153,2.245-2.803s2.114-0.975,3.347-0.975c0.903,0,1.708,0.19,2.414,0.572
		c0.706,0.381,1.28,0.878,1.723,1.489V0.601h2.528v20.699H131.883z M123.849,13.817c0,1.92,0.404,3.356,1.215,4.306
		c0.81,0.95,1.765,1.426,2.866,1.426c1.11,0,2.055-0.454,2.831-1.362c0.775-0.908,1.165-2.294,1.165-4.159
		c0-2.053-0.396-3.558-1.187-4.519c-0.79-0.96-1.765-1.44-2.923-1.44c-1.129,0-2.074,0.462-2.83,1.384
		C124.228,10.377,123.849,11.831,123.849,13.817z"/>
	<path id="XMLID_27_" fill="#231F20" d="M147.628,16.162L146.851,5.19V0.601H150V5.19l-0.733,10.971H147.628z M146.964,21.301
		v-2.894h2.923v2.894H146.964z"/>
</g>
<g id="XMLID_2_">
</g>
<g id="XMLID_30_">
</g>
<g id="XMLID_31_">
</g>
<g id="XMLID_32_">
</g>
<g id="XMLID_33_">
</g>
<g id="XMLID_34_">
</g>
<g id="XMLID_4_">
</g>
<g id="XMLID_6_">
</g>
<g id="XMLID_7_">
</g>
<g id="XMLID_9_">
</g>
<g id="XMLID_11_">
</g>
<g id="XMLID_13_">
</g>
<g id="XMLID_14_">
</g>
<g id="XMLID_16_">
</g>
<g id="XMLID_18_">
</g>
<g id="XMLID_23_">
</g>
<g id="XMLID_28_">
</g>
<g id="XMLID_29_">
</g>
<g id="XMLID_35_">
</g>
<g id="XMLID_38_">
</g>
<g id="XMLID_39_">
</g>
</svg>
